<?xml version="1.0" encoding="UTF-8" standalone="no"?><!DOCTYPE svg PUBLIC "-//W3C//DTD SVG 1.1//EN" "http://www.w3.org/Graphics/SVG/1.1/DTD/svg11.dtd"><svg width="100%" height="100%" viewBox="0 0 978 134" version="1.1" xmlns="http://www.w3.org/2000/svg" xmlns:xlink="http://www.w3.org/1999/xlink" xml:space="preserve" xmlns:serif="http://www.serif.com/" style="fill-rule:evenodd;clip-rule:evenodd;stroke-linecap:round;stroke-linejoin:round;stroke-miterlimit:1.5;"><g><g><g><g><path d="M169.859,107.213l-169.359,0.672l14.994,22.333l169.359,0l-14.994,-23.005Z" style="fill:#d33c12;stroke:#d33c12;stroke-width:1px;"/><path d="M15.492,130.218l154.365,-23.005l-169.357,0.678l14.992,22.327Z" style="fill-opacity:0.03;"/></g><g><path d="M156.546,68.396l-142.74,0l15.001,22.269l142.74,0l-15.001,-22.269Z" style="fill:#d33c12;stroke:#d33c12;stroke-width:1px;"/><path d="M28.823,90.665l127.707,-22.269l-142.724,0l15.017,22.269Z" style="fill-opacity:0.03;"/></g><g><path d="M146.229,28.871l-119.11,0l12.824,22.416l118.291,0l-12.005,-22.416Z" style="fill:#d33c12;stroke:#d33c12;stroke-width:1px;"/><path d="M39.943,51.287l77.438,-22.416l-90.262,0l12.824,22.416Z" style="fill-opacity:0.03;"/></g><path d="M156.546,68.396l-156.046,39.489l14.994,22.333l156.053,-39.489l-15.001,-22.333Z" style="fill:#ec4e20;stroke:#ec4e20;stroke-width:1px;"/><path d="M146.229,28.871l-132.416,39.47l14.994,22.324l129.427,-39.378l-12.005,-22.416Z" style="fill:#ec4e20;stroke:#ec4e20;stroke-width:1px;"/><path d="M102.553,1.092l-75.434,27.779l12.824,22.416l62.61,-50.195Z" style="fill:#ec4e20;stroke:#ec4e20;stroke-width:1px;"/></g><g><path d="M223.53,20.584l0,4.884c-6.745,0 -12.472,2.326 -17.182,6.978c-4.71,4.651 -7.065,10.524 -7.065,17.618l0,45.877l24.421,0l0,4.885l-24.421,0l0,30.003l-5.582,0l0,-80.765c0,-8.606 2.907,-15.67 8.722,-21.194c5.814,-5.524 12.85,-8.286 21.107,-8.286Z" style="fill:#d33c12;fill-rule:nonzero;"/><path d="M223.53,20.584l0,4.884c-6.745,0 -12.472,2.326 -17.182,6.978c-4.71,4.651 -7.065,10.524 -7.065,17.618l0,45.877l24.421,0l0,4.885l-24.421,0l0,30.003l-5.582,0l0,-80.765c0,-8.606 2.907,-15.67 8.722,-21.194c5.814,-5.524 12.85,-8.286 21.107,-8.286Zm-2.083,2.148c-6.802,0.426 -12.667,2.972 -17.589,7.648c-5.398,5.128 -8.074,11.695 -8.074,19.684l0,78.682l1.416,0l0,-27.92c0,-1.151 0.932,-2.084 2.083,-2.084l22.338,0l0,-0.717l-22.338,0c-1.151,0 -2.083,-0.933 -2.083,-2.084c0,0 0,-45.877 0,-45.877c0,-7.694 2.575,-14.055 7.684,-19.101c4.619,-4.562 10.139,-7.068 16.563,-7.508l0,-0.723Z" style="fill:#d33c12;"/><path d="M300.806,52.332l5.583,0l0,78.497l-5.583,0l0,-15.874c-5.93,11.862 -16.048,17.793 -30.352,17.793c-9.769,0 -17.967,-3.372 -24.596,-10.117c-6.629,-6.745 -9.943,-14.944 -9.943,-24.596l0,-45.703l5.582,0l0,45.703c0,8.024 2.82,15.002 8.46,20.932c5.641,5.931 12.473,8.897 20.497,8.897c8.024,0 15.089,-2.966 21.194,-8.897c6.106,-5.93 9.158,-12.908 9.158,-20.932l0,-45.703Z" style="fill:#d33c12;fill-rule:nonzero;"/><path d="M300.806,52.332l5.583,0l0,78.497l-5.583,0l0,-15.874c-5.93,11.862 -16.048,17.793 -30.352,17.793c-9.769,0 -17.967,-3.372 -24.596,-10.117c-6.629,-6.745 -9.943,-14.944 -9.943,-24.596l0,-45.703l5.582,0l0,45.703c0,8.024 2.82,15.002 8.46,20.932c5.641,5.931 12.473,8.897 20.497,8.897c8.024,0 15.089,-2.966 21.194,-8.897c6.106,-5.93 9.158,-12.908 9.158,-20.932l0,-45.703Zm2.084,76.414l1.415,0l0,-74.331l-1.415,0l0,43.62c0,8.594 -3.251,16.075 -9.79,22.427c-6.521,6.335 -14.075,9.485 -22.646,9.485c-8.614,0 -15.951,-3.177 -22.006,-9.544c-6.027,-6.337 -9.034,-13.795 -9.034,-22.368l0,-43.62l-1.416,0l0,43.62c0,9.078 3.112,16.792 9.346,23.135c6.227,6.337 13.933,9.495 23.11,9.495c13.414,0 22.927,-5.518 28.489,-16.641c0.432,-0.865 1.402,-1.318 2.342,-1.096c0.94,0.222 1.605,1.061 1.605,2.027l0,13.791Z" style="fill:#d33c12;"/><path d="M355.406,127.515l0,4.884c-8.257,0 -15.293,-2.762 -21.107,-8.286c-5.815,-5.523 -8.722,-12.588 -8.722,-21.194l0,-102.919l5.582,0l0,102.919c0,7.094 2.355,12.967 7.065,17.618c4.71,4.652 10.437,6.978 17.182,6.978Z" style="fill:#d33c12;fill-rule:nonzero;"/><path d="M355.406,127.515l0,4.884c-8.257,0 -15.293,-2.762 -21.107,-8.286c-5.815,-5.523 -8.722,-12.588 -8.722,-21.194l0,-102.919l5.582,0l0,102.919c0,7.094 2.355,12.967 7.065,17.618c4.71,4.652 10.437,6.978 17.182,6.978Zm-26.33,-125.432l-1.416,0l0,100.836c0,7.989 2.676,14.556 8.074,19.684c4.922,4.677 10.787,7.222 17.589,7.648l0,-0.723c-6.424,-0.44 -11.944,-2.946 -16.563,-7.508c-5.109,-5.046 -7.684,-11.407 -7.684,-19.101l0,-100.836Z" style="fill:#d33c12;"/><path d="M400.411,133.097l-1.57,0c-11.164,0 -20.758,-4.128 -28.782,-12.385c-8.024,-8.257 -12.037,-17.938 -12.037,-29.044c0,-11.106 4.071,-20.7 12.211,-28.783c8.141,-8.082 18.142,-12.123 30.004,-12.123c11.862,0 21.979,4.477 30.352,13.432l0,8.896c-3.605,-5.349 -8.169,-9.594 -13.693,-12.734c-5.524,-3.14 -11.31,-4.71 -17.357,-4.71c-9.652,0 -18.054,3.576 -25.206,10.728c-7.152,7.152 -10.728,15.671 -10.728,25.555c0,9.885 3.576,18.404 10.728,25.556c7.152,7.152 15.554,10.728 25.206,10.728c6.047,0 11.833,-1.57 17.357,-4.71c5.524,-3.14 10.088,-7.443 13.693,-12.909l0,9.071c-8.14,8.955 -18.2,13.432 -30.178,13.432Z" style="fill:#d33c12;fill-rule:nonzero;"/><path d="M400.411,133.097l-1.57,0c-11.164,0 -20.758,-4.128 -28.782,-12.385c-8.024,-8.257 -12.037,-17.938 -12.037,-29.044c0,-11.106 4.071,-20.7 12.211,-28.783c8.141,-8.082 18.142,-12.123 30.004,-12.123c11.862,0 21.979,4.477 30.352,13.432l0,8.896c-3.605,-5.349 -8.169,-9.594 -13.693,-12.734c-5.524,-3.14 -11.31,-4.71 -17.357,-4.71c-9.652,0 -18.054,3.576 -25.206,10.728c-7.152,7.152 -10.728,15.671 -10.728,25.555c0,9.885 3.576,18.404 10.728,25.556c7.152,7.152 15.554,10.728 25.206,10.728c6.047,0 11.833,-1.57 17.357,-4.71c5.524,-3.14 10.088,-7.443 13.693,-12.909l0,9.071c-8.14,8.955 -18.2,13.432 -30.178,13.432Zm28.095,-68.07c-7.844,-8.115 -17.264,-12.182 -28.269,-12.182c-11.28,0 -20.795,3.833 -28.536,11.519c-7.723,7.668 -11.595,16.767 -11.595,27.304c0,10.552 3.823,19.747 11.447,27.592c7.609,7.829 16.702,11.754 27.288,11.754l1.57,0c11.103,0 20.468,-4.058 28.095,-12.165l0,-2.11c-3.047,3.44 -6.575,6.298 -10.581,8.575c-5.851,3.326 -11.981,4.982 -18.386,4.982c-10.214,0 -19.111,-3.77 -26.68,-11.338c-7.563,-7.564 -11.338,-16.575 -11.338,-27.029c0,-10.453 3.775,-19.465 11.338,-27.028c7.569,-7.568 16.466,-11.338 26.68,-11.338c6.405,0 12.535,1.656 18.386,4.982c4.007,2.278 7.535,5.108 10.581,8.492l0,-2.01Z" style="fill:#d33c12;"/><path d="M491.294,62.973c-5.117,-5.117 -10.757,-7.676 -16.921,-7.676c-6.163,0 -11.6,2.326 -16.31,6.978c-4.71,4.651 -7.064,10.059 -7.064,16.223l0,52.331l-5.583,0l0,-78.497l5.583,0l0,11.687c2.093,-3.954 5.349,-7.21 9.768,-9.768c4.419,-2.559 9.362,-3.838 14.827,-3.838c5.466,0 10.699,1.861 15.7,5.582l0,6.978Z" style="fill:#d33c12;fill-rule:nonzero;"/><path d="M491.294,62.973c-5.117,-5.117 -10.757,-7.676 -16.921,-7.676c-6.163,0 -11.6,2.326 -16.31,6.978c-4.71,4.651 -7.064,10.059 -7.064,16.223l0,52.331l-5.583,0l0,-78.497l5.583,0l0,11.687c2.093,-3.954 5.349,-7.21 9.768,-9.768c4.419,-2.559 9.362,-3.838 14.827,-3.838c5.466,0 10.699,1.861 15.7,5.582l0,6.978Zm-2.083,-5.911c-4.352,-3.029 -8.886,-4.566 -13.617,-4.566c-5.08,0 -9.676,1.18 -13.783,3.558c-4.051,2.345 -7.052,5.315 -8.971,8.94c-0.448,0.846 -1.415,1.278 -2.344,1.047c-0.929,-0.231 -1.581,-1.065 -1.581,-2.022l0,-9.604l-1.415,0l0,74.331l1.415,0l0,-50.248c0,-6.723 2.547,-12.632 7.684,-17.706c5.13,-5.066 11.061,-7.578 17.774,-7.578c5.295,0 10.248,1.709 14.838,5.175l0,-1.327Z" style="fill:#d33c12;"/><path d="M569.268,52.332l5.582,0l0,78.497l-5.582,0l0,-15.874c-5.931,11.862 -16.048,17.793 -30.352,17.793c-9.769,0 -17.967,-3.372 -24.596,-10.117c-6.629,-6.745 -9.943,-14.944 -9.943,-24.596l0,-45.703l5.582,0l0,45.703c0,8.024 2.82,15.002 8.46,20.932c5.64,5.931 12.473,8.897 20.497,8.897c8.024,0 15.089,-2.966 21.194,-8.897c6.106,-5.93 9.158,-12.908 9.158,-20.932l0,-45.703Z" style="fill:#d33c12;fill-rule:nonzero;"/><path d="M569.268,52.332l5.582,0l0,78.497l-5.582,0l0,-15.874c-5.931,11.862 -16.048,17.793 -30.352,17.793c-9.769,0 -17.967,-3.372 -24.596,-10.117c-6.629,-6.745 -9.943,-14.944 -9.943,-24.596l0,-45.703l5.582,0l0,45.703c0,8.024 2.82,15.002 8.46,20.932c5.64,5.931 12.473,8.897 20.497,8.897c8.024,0 15.089,-2.966 21.194,-8.897c6.106,-5.93 9.158,-12.908 9.158,-20.932l0,-45.703Zm2.084,76.414l1.415,0l0,-74.331l-1.415,0l0,43.62c0,8.594 -3.251,16.075 -9.79,22.427c-6.522,6.335 -14.075,9.485 -22.646,9.485c-8.614,0 -15.952,-3.177 -22.006,-9.544c-6.027,-6.337 -9.034,-13.795 -9.034,-22.368l0,-43.62l-1.416,0l0,43.62c0,9.078 3.111,16.792 9.346,23.135c6.227,6.337 13.933,9.495 23.11,9.495c13.414,0 22.927,-5.518 28.489,-16.641c0.432,-0.865 1.402,-1.318 2.342,-1.096c0.94,0.222 1.605,1.061 1.605,2.027l0,13.791Z" style="fill:#d33c12;"/><path d="M648.464,68.903c1.744,-5.582 5.087,-10.059 10.03,-13.431c4.942,-3.373 10.96,-5.059 18.054,-5.059c7.094,0 13.316,2.558 18.665,7.675c5.35,5.117 8.024,12.037 8.024,20.758l0,51.983l-5.582,0l0,-51.983c0,-6.745 -2.209,-12.356 -6.628,-16.833c-4.419,-4.477 -9.74,-6.716 -15.961,-6.716c-6.222,0 -11.746,2.326 -16.572,6.978c-4.826,4.651 -7.239,10.059 -7.239,16.223l0,52.331l-5.582,0l0,-52.331c0,-6.28 -2.21,-11.717 -6.629,-16.31c-4.419,-4.594 -9.769,-6.891 -16.049,-6.891c-6.279,0 -11.745,2.326 -16.397,6.978c-4.652,4.651 -6.977,10.059 -6.977,16.223l0,52.331l-5.582,0l0,-78.497l5.582,0l0,10.989c2.325,-3.488 5.785,-6.512 10.379,-9.07c4.593,-2.559 9.361,-3.838 14.304,-3.838c4.942,0 9.681,1.715 14.217,5.146c4.535,3.43 7.849,7.879 9.943,13.344Z" style="fill:#d33c12;fill-rule:nonzero;"/><path d="M648.464,68.903c1.744,-5.582 5.087,-10.059 10.03,-13.431c4.942,-3.373 10.96,-5.059 18.054,-5.059c7.094,0 13.316,2.558 18.665,7.675c5.35,5.117 8.024,12.037 8.024,20.758l0,51.983l-5.582,0l0,-51.983c0,-6.745 -2.209,-12.356 -6.628,-16.833c-4.419,-4.477 -9.74,-6.716 -15.961,-6.716c-6.222,0 -11.746,2.326 -16.572,6.978c-4.826,4.651 -7.239,10.059 -7.239,16.223l0,52.331l-5.582,0l0,-52.331c0,-6.28 -2.21,-11.717 -6.629,-16.31c-4.419,-4.594 -9.769,-6.891 -16.049,-6.891c-6.279,0 -11.745,2.326 -16.397,6.978c-4.652,4.651 -6.977,10.059 -6.977,16.223l0,52.331l-5.582,0l0,-78.497l5.582,0l0,10.989c2.325,-3.488 5.785,-6.512 10.379,-9.07c4.593,-2.559 9.361,-3.838 14.304,-3.838c4.942,0 9.681,1.715 14.217,5.146c4.535,3.43 7.849,7.879 9.943,13.344Zm52.69,59.843l0,-49.9c0,-8.08 -2.425,-14.512 -7.381,-19.252c-4.938,-4.724 -10.676,-7.098 -17.225,-7.098c-6.629,0 -12.261,1.545 -16.88,4.697c-4.539,3.097 -7.614,7.205 -9.216,12.332c-0.265,0.847 -1.036,1.433 -1.923,1.461c-0.887,0.028 -1.694,-0.509 -2.011,-1.337c-1.949,-5.09 -5.031,-9.234 -9.254,-12.429c-4.138,-3.13 -8.451,-4.724 -12.96,-4.724c-4.593,0 -9.022,1.197 -13.291,3.575c-4.267,2.376 -7.498,5.165 -9.659,8.406c-0.509,0.764 -1.458,1.104 -2.337,0.838c-0.879,-0.266 -1.48,-1.076 -1.48,-1.994l0,-8.906l-1.415,0l0,74.331l1.415,0l0,-50.248c0,-6.72 2.516,-12.625 7.588,-17.696c5.068,-5.068 11.029,-7.588 17.87,-7.588c6.867,0 12.718,2.506 17.55,7.529c4.81,5 7.211,10.919 7.211,17.755l0,50.248l1.415,0l0,-50.248c0,-6.729 2.608,-12.645 7.877,-17.723c5.245,-5.055 11.256,-7.561 18.018,-7.561c6.799,0 12.614,2.443 17.443,7.336c4.806,4.868 7.23,10.962 7.23,18.296l0,49.9l1.415,0Z" style="fill:#d33c12;"/><path d="M787.317,52.332l5.582,0l0,78.497l-5.582,0l0,-15.874c-5.931,11.862 -16.048,17.793 -30.352,17.793c-9.769,0 -17.968,-3.372 -24.596,-10.117c-6.629,-6.745 -9.943,-14.944 -9.943,-24.596l0,-45.703l5.582,0l0,45.703c0,8.024 2.82,15.002 8.46,20.932c5.64,5.931 12.472,8.897 20.497,8.897c8.024,0 15.089,-2.966 21.194,-8.897c6.105,-5.93 9.158,-12.908 9.158,-20.932l0,-45.703Z" style="fill:#d33c12;fill-rule:nonzero;"/><path d="M787.317,52.332l5.582,0l0,78.497l-5.582,0l0,-15.874c-5.931,11.862 -16.048,17.793 -30.352,17.793c-9.769,0 -17.968,-3.372 -24.596,-10.117c-6.629,-6.745 -9.943,-14.944 -9.943,-24.596l0,-45.703l5.582,0l0,45.703c0,8.024 2.82,15.002 8.46,20.932c5.64,5.931 12.472,8.897 20.497,8.897c8.024,0 15.089,-2.966 21.194,-8.897c6.105,-5.93 9.158,-12.908 9.158,-20.932l0,-45.703Zm2.083,76.414l1.416,0l0,-74.331l-1.416,0l0,43.62c0,8.594 -3.25,16.075 -9.789,22.427c-6.522,6.335 -14.075,9.485 -22.646,9.485c-8.614,0 -15.952,-3.177 -22.007,-9.544c-6.026,-6.337 -9.034,-13.795 -9.034,-22.368l0,-43.62l-1.415,0l0,43.62c0,9.078 3.111,16.792 9.346,23.135c6.227,6.337 13.933,9.495 23.11,9.495c13.413,0 22.927,-5.518 28.489,-16.641c0.432,-0.865 1.401,-1.318 2.342,-1.096c0.94,0.222 1.604,1.061 1.604,2.027l0,13.791Z" style="fill:#d33c12;"/><path d="M819.937,52.506l0,78.323l-5.582,0l0,-78.323l5.582,0Zm-2.791,-19.188c-3.372,0 -5.059,-1.57 -5.059,-4.71c0,-3.14 1.687,-4.71 5.059,-4.71c3.373,0 5.059,1.57 5.059,4.71c0,3.14 -1.686,4.71 -5.059,4.71Z" style="fill:#d33c12;fill-rule:nonzero;"/><path d="M819.937,52.506l0,78.323l-5.582,0l0,-78.323l5.582,0Zm-3.499,2.083l0,74.157l1.416,0l0,-74.157l-1.416,0Zm0.708,-21.271c-3.372,0 -5.059,-1.57 -5.059,-4.71c0,-3.14 1.687,-4.71 5.059,-4.71c3.373,0 5.059,1.57 5.059,4.71c0,3.14 -1.686,4.71 -5.059,4.71Zm0,-2.083c-1.041,0 -1.853,-0.135 -2.374,-0.619c-0.471,-0.439 -0.601,-1.131 -0.601,-2.008c0,-0.877 0.13,-1.569 0.601,-2.008c0.521,-0.484 1.333,-0.619 2.374,-0.619c1.042,0 1.854,0.135 2.375,0.619c0.471,0.439 0.601,1.131 0.601,2.008c0,0.877 -0.13,1.569 -0.601,2.008c-0.521,0.484 -1.333,0.619 -2.375,0.619Z" style="fill:#d33c12;"/><path d="M844.795,121.235l6.018,10.815l-12.036,0l6.018,-10.815Z" style="fill:#d33c12;"/><path d="M844.795,121.235l6.018,10.815l-12.036,0l6.018,-10.815Zm-2.475,8.732l4.949,0l-2.474,-4.447l-2.475,4.447Z" style="fill:#d33c12;"/><path d="M875.234,52.506l0,78.323l-5.582,0l0,-78.323l5.582,0Zm-2.791,-19.188c-3.372,0 -5.058,-1.57 -5.058,-4.71c0,-3.14 1.686,-4.71 5.058,-4.71c3.373,0 5.059,1.57 5.059,4.71c0,3.14 -1.686,4.71 -5.059,4.71Z" style="fill:#d33c12;fill-rule:nonzero;"/><path d="M875.234,52.506l0,78.323l-5.582,0l0,-78.323l5.582,0Zm-3.498,2.083l0,74.157l1.415,0l0,-74.157l-1.415,0Zm0.707,-21.271c-3.372,0 -5.058,-1.57 -5.058,-4.71c0,-3.14 1.686,-4.71 5.058,-4.71c3.373,0 5.059,1.57 5.059,4.71c0,3.14 -1.686,4.71 -5.059,4.71Zm0,-2.083c-1.041,0 -1.853,-0.135 -2.374,-0.619c-0.471,-0.439 -0.601,-1.131 -0.601,-2.008c0,-0.877 0.13,-1.569 0.601,-2.008c0.521,-0.484 1.333,-0.619 2.374,-0.619c1.042,0 1.854,0.135 2.375,0.619c0.471,0.439 0.601,1.131 0.601,2.008c0,0.877 -0.13,1.569 -0.601,2.008c-0.521,0.484 -1.333,0.619 -2.375,0.619Z" style="fill:#d33c12;"/><path d="M934.893,132.748c-11.165,0 -20.759,-4.157 -28.783,-12.472c-8.024,-8.315 -12.036,-17.997 -12.036,-29.044c0,-11.048 4.07,-20.613 12.211,-28.696c8.14,-8.082 17.938,-12.123 29.393,-12.123c11.454,0 21.223,4.041 29.305,12.123c8.083,8.083 12.124,17.677 12.124,28.783c0,11.106 -3.954,20.787 -11.862,29.044c-7.908,8.257 -17.502,12.385 -28.782,12.385l-1.57,0Zm36.632,-40.993c0,-9.885 -3.518,-18.432 -10.554,-25.643c-7.036,-7.21 -15.438,-10.815 -25.206,-10.815c-9.769,0 -18.229,3.634 -25.381,10.903c-7.152,7.268 -10.728,15.786 -10.728,25.555c0,9.769 3.576,18.229 10.728,25.381c7.152,7.152 15.641,10.728 25.468,10.728c9.827,0 18.229,-3.576 25.206,-10.728c6.978,-7.152 10.467,-15.612 10.467,-25.381Z" style="fill:#d33c12;fill-rule:nonzero;"/><path d="M934.893,132.748c-11.165,0 -20.759,-4.157 -28.783,-12.472c-8.024,-8.315 -12.036,-17.997 -12.036,-29.044c0,-11.048 4.07,-20.613 12.211,-28.696c8.14,-8.082 17.938,-12.123 29.393,-12.123c11.454,0 21.223,4.041 29.305,12.123c8.083,8.083 12.124,17.677 12.124,28.783c0,11.106 -3.954,20.787 -11.862,29.044c-7.908,8.257 -17.502,12.385 -28.782,12.385l-1.57,0Zm0,-2.083c-10.585,0 -19.676,-3.953 -27.284,-11.836c-7.626,-7.902 -11.452,-17.098 -11.452,-27.597c0,-10.481 3.873,-19.55 11.595,-27.217c7.734,-7.679 17.043,-11.519 27.926,-11.519c10.878,0 20.156,3.838 27.832,11.514c7.67,7.669 11.513,16.77 11.513,27.309c0,10.556 -3.766,19.755 -11.283,27.603c-7.495,7.826 -16.586,11.743 -27.277,11.743l-1.57,0Zm38.715,-38.91c0,-10.445 -3.711,-19.479 -11.146,-27.098c-7.45,-7.635 -16.352,-11.443 -26.697,-11.443c-10.338,0 -19.297,3.833 -26.866,11.524c-7.56,7.683 -11.326,16.692 -11.326,27.017c0,10.334 3.772,19.288 11.338,26.854c7.564,7.565 16.547,11.338 26.941,11.338c10.407,0 19.308,-3.782 26.698,-11.356c7.376,-7.561 11.058,-16.509 11.058,-26.836Zm-2.083,0c0,-9.885 -3.518,-18.432 -10.554,-25.643c-7.036,-7.21 -15.438,-10.815 -25.206,-10.815c-9.769,0 -18.229,3.634 -25.381,10.903c-7.152,7.268 -10.728,15.786 -10.728,25.555c0,9.769 3.576,18.229 10.728,25.381c7.152,7.152 15.641,10.728 25.468,10.728c9.827,0 18.229,-3.576 25.206,-10.728c6.978,-7.152 10.467,-15.612 10.467,-25.381Z" style="fill:#d33c12;"/></g></g></g></svg>