<?xml version="1.0" encoding="UTF-8" standalone="no"?><!DOCTYPE svg PUBLIC "-//W3C//DTD SVG 1.1//EN" "http://www.w3.org/Graphics/SVG/1.1/DTD/svg11.dtd"><svg width="100%" height="100%" viewBox="0 0 1000 1000" version="1.1" xmlns="http://www.w3.org/2000/svg" xmlns:xlink="http://www.w3.org/1999/xlink" xml:space="preserve" xmlns:serif="http://www.serif.com/" style="fill-rule:evenodd;clip-rule:evenodd;stroke-linecap:round;stroke-linejoin:round;stroke-miterlimit:1.5;"><rect id="Artboard1" x="0" y="0" width="1000" height="1000" style="fill:none;"/><g id="Artboard11" serif:id="Artboard1"><g><g><g><path d="M903.625,717.327l-885.663,3.515l78.413,116.79l885.663,0l-78.413,-120.305Z" style="fill:#d33c12;stroke:#d33c12;stroke-width:1px;"/><path d="M96.364,837.632l807.255,-120.305l-885.657,3.544l78.402,116.761Z" style="fill-opacity:0.03;"/></g><g><path d="M834.004,514.332l-746.459,0l78.451,116.456l746.459,0l-78.451,-116.456Z" style="fill:#d33c12;stroke:#d33c12;stroke-width:1px;"/><path d="M166.077,630.788l667.847,-116.456l-746.379,0l78.532,116.456Z" style="fill-opacity:0.03;"/></g><g><path d="M780.052,307.636l-622.886,0l67.064,117.226l618.604,0l-62.782,-117.226Z" style="fill:#d33c12;stroke:#d33c12;stroke-width:1px;"/><path d="M224.232,424.862l404.96,-117.226l-472.026,0l67.066,117.226Z" style="fill-opacity:0.03;"/></g><path d="M834.004,514.332l-816.042,206.51l78.411,116.79l816.082,-206.51l-78.451,-116.79Z" style="fill:#ec4e20;stroke:#ec4e20;stroke-width:1px;"/><path d="M780.051,307.636l-692.468,206.411l78.413,116.741l676.838,-205.926l-62.783,-117.226Z" style="fill:#ec4e20;stroke:#ec4e20;stroke-width:1px;"/><path d="M551.649,162.368l-394.483,145.268l67.064,117.226l327.419,-262.494Z" style="fill:#ec4e20;stroke:#ec4e20;stroke-width:1px;"/></g></g></g></svg>