<?xml version="1.0" encoding="UTF-8" standalone="no"?><!DOCTYPE svg PUBLIC "-//W3C//DTD SVG 1.1//EN" "http://www.w3.org/Graphics/SVG/1.1/DTD/svg11.dtd"><svg width="100%" height="100%" viewBox="0 0 1000 1000" version="1.1" xmlns="http://www.w3.org/2000/svg" xmlns:xlink="http://www.w3.org/1999/xlink" xml:space="preserve" xmlns:serif="http://www.serif.com/" style="fill-rule:evenodd;clip-rule:evenodd;stroke-linecap:round;stroke-linejoin:round;stroke-miterlimit:1.5;"><rect id="Artboard1" x="0" y="0" width="1000" height="1000" style="fill:none;"/><g id="Artboard11" serif:id="Artboard1"><g><g><g><g><path d="M181.055,540.665l-169.358,0.672l14.994,22.333l169.358,0l-14.994,-23.005Z" style="fill:#d33c12;stroke:#d33c12;stroke-width:1px;"/><path d="M26.689,563.67l154.365,-23.005l-169.357,0.677l14.992,22.328Z" style="fill-opacity:0.03;"/></g><g><path d="M167.742,501.847l-142.74,0l15.002,22.269l142.74,0l-15.002,-22.269Z" style="fill:#d33c12;stroke:#d33c12;stroke-width:1px;"/><path d="M40.019,524.116l127.708,-22.269l-142.725,0l15.017,22.269Z" style="fill-opacity:0.03;"/></g><g><path d="M157.425,462.322l-119.11,0l12.825,22.417l118.291,0l-12.006,-22.417Z" style="fill:#d33c12;stroke:#d33c12;stroke-width:1px;"/><path d="M51.14,484.739l77.437,-22.417l-90.262,0l12.825,22.417Z" style="fill-opacity:0.03;"/></g><path d="M167.742,501.847l-156.045,39.49l14.993,22.333l156.054,-39.49l-15.002,-22.333Z" style="fill:#ec4e20;stroke:#ec4e20;stroke-width:1px;"/><path d="M157.425,462.322l-132.415,39.471l14.994,22.323l129.427,-39.377l-12.006,-22.417Z" style="fill:#ec4e20;stroke:#ec4e20;stroke-width:1px;"/><path d="M113.749,434.544l-75.434,27.778l12.825,22.417l62.609,-50.195Z" style="fill:#ec4e20;stroke:#ec4e20;stroke-width:1px;"/></g><g><path d="M234.727,454.035l0,4.885c-6.745,0 -12.473,2.325 -17.183,6.977c-4.71,4.652 -7.064,10.525 -7.064,17.619l0,45.877l24.421,0l0,4.884l-24.421,0l0,30.004l-5.583,0l0,-80.765c0,-8.606 2.908,-15.671 8.722,-21.195c5.815,-5.524 12.851,-8.286 21.108,-8.286Z" style="fill:#d33c12;fill-rule:nonzero;"/><path d="M234.727,454.035l0,4.885c-6.745,0 -12.473,2.325 -17.183,6.977c-4.71,4.652 -7.064,10.525 -7.064,17.619l0,45.877l24.421,0l0,4.884l-24.421,0l0,30.004l-5.583,0l0,-80.765c0,-8.606 2.908,-15.671 8.722,-21.195c5.815,-5.524 12.851,-8.286 21.108,-8.286Zm-2.084,2.148c-6.802,0.427 -12.666,2.972 -17.589,7.649c-5.397,5.127 -8.073,11.695 -8.073,19.684l0,78.681l1.415,0l0,-27.92c0,-1.15 0.933,-2.083 2.084,-2.083l22.338,0l0,-0.718l-22.338,0c-1.151,0 -2.084,-0.932 -2.084,-2.083c0,0 0,-45.877 0,-45.877c0,-7.695 2.576,-14.056 7.684,-19.101c4.62,-4.563 10.139,-7.068 16.563,-7.508l0,-0.724Z" style="fill:#d33c12;"/><path d="M312.003,485.783l5.582,0l0,78.498l-5.582,0l0,-15.874c-5.931,11.862 -16.048,17.793 -30.352,17.793c-9.769,0 -17.968,-3.373 -24.596,-10.118c-6.629,-6.745 -9.943,-14.943 -9.943,-24.596l0,-45.703l5.582,0l0,45.703c0,8.024 2.82,15.002 8.46,20.933c5.64,5.931 12.472,8.896 20.497,8.896c8.024,0 15.089,-2.965 21.194,-8.896c6.105,-5.931 9.158,-12.909 9.158,-20.933l0,-45.703Z" style="fill:#d33c12;fill-rule:nonzero;"/><path d="M312.003,485.783l5.582,0l0,78.498l-5.582,0l0,-15.874c-5.931,11.862 -16.048,17.793 -30.352,17.793c-9.769,0 -17.968,-3.373 -24.596,-10.118c-6.629,-6.745 -9.943,-14.943 -9.943,-24.596l0,-45.703l5.582,0l0,45.703c0,8.024 2.82,15.002 8.46,20.933c5.64,5.931 12.472,8.896 20.497,8.896c8.024,0 15.089,-2.965 21.194,-8.896c6.105,-5.931 9.158,-12.909 9.158,-20.933l0,-45.703Zm2.083,76.414l1.416,0l0,-74.33l-1.416,0l0,43.619c0,8.594 -3.251,16.075 -9.789,22.427c-6.522,6.335 -14.075,9.486 -22.646,9.486c-8.614,0 -15.952,-3.177 -22.007,-9.544c-6.026,-6.337 -9.034,-13.795 -9.034,-22.369l0,-43.619l-1.415,0l0,43.619c0,9.079 3.111,16.792 9.346,23.136c6.227,6.336 13.933,9.494 23.11,9.494c13.413,0 22.927,-5.517 28.489,-16.641c0.432,-0.864 1.401,-1.318 2.342,-1.096c0.94,0.222 1.604,1.062 1.604,2.028l0,13.79Z" style="fill:#d33c12;"/><path d="M366.602,560.966l0,4.885c-8.256,0 -15.292,-2.762 -21.107,-8.286c-5.814,-5.524 -8.722,-12.589 -8.722,-21.194l0,-102.92l5.582,0l0,102.92c0,7.093 2.355,12.966 7.065,17.618c4.71,4.652 10.438,6.977 17.182,6.977Z" style="fill:#d33c12;fill-rule:nonzero;"/><path d="M366.602,560.966l0,4.885c-8.256,0 -15.292,-2.762 -21.107,-8.286c-5.814,-5.524 -8.722,-12.589 -8.722,-21.194l0,-102.92l5.582,0l0,102.92c0,7.093 2.355,12.966 7.065,17.618c4.71,4.652 10.438,6.977 17.182,6.977Zm-26.33,-125.431l-1.415,0l0,100.836c0,7.988 2.676,14.556 8.073,19.683c4.923,4.677 10.787,7.222 17.589,7.649l0,-0.724c-6.424,-0.44 -11.943,-2.945 -16.563,-7.508c-5.108,-5.045 -7.684,-11.406 -7.684,-19.1l0,-100.836Z" style="fill:#d33c12;"/><path d="M411.608,566.549l-1.57,0c-11.164,0 -20.758,-4.129 -28.783,-12.386c-8.024,-8.256 -12.036,-17.938 -12.036,-29.044c0,-11.106 4.07,-20.7 12.211,-28.782c8.14,-8.083 18.141,-12.124 30.003,-12.124c11.862,0 21.98,4.478 30.353,13.432l0,8.896c-3.605,-5.349 -8.17,-9.594 -13.694,-12.734c-5.524,-3.139 -11.309,-4.709 -17.356,-4.709c-9.653,0 -18.055,3.576 -25.207,10.728c-7.152,7.152 -10.728,15.67 -10.728,25.555c0,9.885 3.576,18.403 10.728,25.555c7.152,7.152 15.554,10.728 25.207,10.728c6.047,0 11.832,-1.57 17.356,-4.71c5.524,-3.14 10.089,-7.442 13.694,-12.908l0,9.071c-8.141,8.954 -18.2,13.432 -30.178,13.432Z" style="fill:#d33c12;fill-rule:nonzero;"/><path d="M411.608,566.549l-1.57,0c-11.164,0 -20.758,-4.129 -28.783,-12.386c-8.024,-8.256 -12.036,-17.938 -12.036,-29.044c0,-11.106 4.07,-20.7 12.211,-28.782c8.14,-8.083 18.141,-12.124 30.003,-12.124c11.862,0 21.98,4.478 30.353,13.432l0,8.896c-3.605,-5.349 -8.17,-9.594 -13.694,-12.734c-5.524,-3.139 -11.309,-4.709 -17.356,-4.709c-9.653,0 -18.055,3.576 -25.207,10.728c-7.152,7.152 -10.728,15.67 -10.728,25.555c0,9.885 3.576,18.403 10.728,25.555c7.152,7.152 15.554,10.728 25.207,10.728c6.047,0 11.832,-1.57 17.356,-4.71c5.524,-3.14 10.089,-7.442 13.694,-12.908l0,9.071c-8.141,8.954 -18.2,13.432 -30.178,13.432Zm28.094,-68.071c-7.843,-8.114 -17.263,-12.181 -28.269,-12.181c-11.28,0 -20.794,3.832 -28.535,11.518c-7.724,7.669 -11.596,16.767 -11.596,27.304c0,10.553 3.823,19.747 11.447,27.592c7.609,7.83 16.703,11.754 27.289,11.754l1.57,0c11.103,0 20.467,-4.057 28.094,-12.165l0,-2.109c-3.047,3.44 -6.574,6.297 -10.58,8.575c-5.851,3.325 -11.981,4.982 -18.386,4.982c-10.215,0 -19.112,-3.77 -26.68,-11.339c-7.563,-7.563 -11.338,-16.575 -11.338,-27.028c0,-10.454 3.775,-19.465 11.338,-27.029c7.568,-7.568 16.465,-11.338 26.68,-11.338c6.405,0 12.535,1.656 18.386,4.982c4.007,2.278 7.534,5.108 10.58,8.492l0,-2.01Z" style="fill:#d33c12;"/><path d="M502.491,496.424c-5.117,-5.117 -10.758,-7.675 -16.921,-7.675c-6.164,0 -11.6,2.326 -16.31,6.977c-4.71,4.652 -7.065,10.06 -7.065,16.223l0,52.332l-5.582,0l0,-78.498l5.582,0l0,11.688c2.093,-3.954 5.35,-7.211 9.769,-9.769c4.419,-2.558 9.361,-3.838 14.827,-3.838c5.466,0 10.699,1.861 15.7,5.582l0,6.978Z" style="fill:#d33c12;fill-rule:nonzero;"/><path d="M502.491,496.424c-5.117,-5.117 -10.758,-7.675 -16.921,-7.675c-6.164,0 -11.6,2.326 -16.31,6.977c-4.71,4.652 -7.065,10.06 -7.065,16.223l0,52.332l-5.582,0l0,-78.498l5.582,0l0,11.688c2.093,-3.954 5.35,-7.211 9.769,-9.769c4.419,-2.558 9.361,-3.838 14.827,-3.838c5.466,0 10.699,1.861 15.7,5.582l0,6.978Zm-2.084,-5.91c-4.352,-3.03 -8.885,-4.566 -13.616,-4.566c-5.08,0 -9.676,1.179 -13.783,3.557c-4.052,2.346 -7.053,5.315 -8.972,8.94c-0.448,0.846 -1.414,1.278 -2.343,1.048c-0.929,-0.231 -1.581,-1.065 -1.581,-2.022l0,-9.604l-1.416,0l0,74.33l1.416,0l0,-50.248c0,-6.723 2.547,-12.631 7.684,-17.705c5.13,-5.067 11.061,-7.579 17.774,-7.579c5.295,0 10.248,1.709 14.837,5.175l0,-1.326Z" style="fill:#d33c12;"/><path d="M580.465,485.783l5.582,0l0,78.498l-5.582,0l0,-15.874c-5.931,11.862 -16.049,17.793 -30.353,17.793c-9.768,0 -17.967,-3.373 -24.595,-10.118c-6.629,-6.745 -9.944,-14.943 -9.944,-24.596l0,-45.703l5.583,0l0,45.703c0,8.024 2.82,15.002 8.46,20.933c5.64,5.931 12.472,8.896 20.496,8.896c8.025,0 15.089,-2.965 21.195,-8.896c6.105,-5.931 9.158,-12.909 9.158,-20.933l0,-45.703Z" style="fill:#d33c12;fill-rule:nonzero;"/><path d="M580.465,485.783l5.582,0l0,78.498l-5.582,0l0,-15.874c-5.931,11.862 -16.049,17.793 -30.353,17.793c-9.768,0 -17.967,-3.373 -24.595,-10.118c-6.629,-6.745 -9.944,-14.943 -9.944,-24.596l0,-45.703l5.583,0l0,45.703c0,8.024 2.82,15.002 8.46,20.933c5.64,5.931 12.472,8.896 20.496,8.896c8.025,0 15.089,-2.965 21.195,-8.896c6.105,-5.931 9.158,-12.909 9.158,-20.933l0,-45.703Zm2.083,76.414l1.416,0l0,-74.33l-1.416,0l0,43.619c0,8.594 -3.251,16.075 -9.79,22.427c-6.521,6.335 -14.075,9.486 -22.646,9.486c-8.614,0 -15.951,-3.177 -22.006,-9.544c-6.026,-6.337 -9.034,-13.795 -9.034,-22.369l0,-43.619l-1.415,0l0,43.619c0,9.079 3.111,16.792 9.345,23.136c6.228,6.336 13.934,9.494 23.11,9.494c13.414,0 22.928,-5.517 28.489,-16.641c0.433,-0.864 1.402,-1.318 2.342,-1.096c0.941,0.222 1.605,1.062 1.605,2.028l0,13.79Z" style="fill:#d33c12;"/><path d="M659.66,502.355c1.745,-5.582 5.088,-10.059 10.03,-13.432c4.943,-3.372 10.961,-5.059 18.055,-5.059c7.094,0 13.315,2.559 18.665,7.676c5.349,5.117 8.024,12.036 8.024,20.758l0,51.983l-5.582,0l0,-51.983c0,-6.745 -2.21,-12.356 -6.629,-16.833c-4.419,-4.478 -9.739,-6.716 -15.961,-6.716c-6.222,0 -11.745,2.326 -16.572,6.977c-4.826,4.652 -7.239,10.06 -7.239,16.223l0,52.332l-5.582,0l0,-52.332c0,-6.28 -2.209,-11.716 -6.629,-16.31c-4.419,-4.594 -9.768,-6.89 -16.048,-6.89c-6.28,0 -11.746,2.326 -16.397,6.977c-4.652,4.652 -6.978,10.06 -6.978,16.223l0,52.332l-5.582,0l0,-78.498l5.582,0l0,10.99c2.326,-3.489 5.786,-6.513 10.379,-9.071c4.594,-2.558 9.362,-3.838 14.304,-3.838c4.943,0 9.682,1.716 14.217,5.146c4.536,3.431 7.85,7.879 9.943,13.345Z" style="fill:#d33c12;fill-rule:nonzero;"/><path d="M659.66,502.355c1.745,-5.582 5.088,-10.059 10.03,-13.432c4.943,-3.372 10.961,-5.059 18.055,-5.059c7.094,0 13.315,2.559 18.665,7.676c5.349,5.117 8.024,12.036 8.024,20.758l0,51.983l-5.582,0l0,-51.983c0,-6.745 -2.21,-12.356 -6.629,-16.833c-4.419,-4.478 -9.739,-6.716 -15.961,-6.716c-6.222,0 -11.745,2.326 -16.572,6.977c-4.826,4.652 -7.239,10.06 -7.239,16.223l0,52.332l-5.582,0l0,-52.332c0,-6.28 -2.209,-11.716 -6.629,-16.31c-4.419,-4.594 -9.768,-6.89 -16.048,-6.89c-6.28,0 -11.746,2.326 -16.397,6.977c-4.652,4.652 -6.978,10.06 -6.978,16.223l0,52.332l-5.582,0l0,-78.498l5.582,0l0,10.99c2.326,-3.489 5.786,-6.513 10.379,-9.071c4.594,-2.558 9.362,-3.838 14.304,-3.838c4.943,0 9.682,1.716 14.217,5.146c4.536,3.431 7.85,7.879 9.943,13.345Zm52.691,59.842l0,-49.899c0,-8.081 -2.425,-14.512 -7.381,-19.253c-4.938,-4.723 -10.677,-7.097 -17.225,-7.097c-6.629,0 -12.262,1.544 -16.88,4.696c-4.539,3.097 -7.614,7.206 -9.216,12.332c-0.265,0.847 -1.037,1.433 -1.923,1.461c-0.887,0.028 -1.694,-0.509 -2.011,-1.337c-1.949,-5.089 -5.032,-9.234 -9.255,-12.428c-4.138,-3.13 -8.45,-4.724 -12.96,-4.724c-4.593,0 -9.021,1.197 -13.29,3.574c-4.267,2.377 -7.499,5.166 -9.659,8.407c-0.51,0.763 -1.459,1.104 -2.337,0.838c-0.879,-0.266 -1.48,-1.076 -1.48,-1.994l0,-8.906l-1.415,0l0,74.33l1.415,0l0,-50.248c0,-6.72 2.516,-12.624 7.588,-17.696c5.068,-5.068 11.028,-7.588 17.87,-7.588c6.867,0 12.718,2.507 17.55,7.53c4.81,5 7.21,10.919 7.21,17.754l0,50.248l1.416,0l0,-50.248c0,-6.729 2.608,-12.644 7.877,-17.723c5.244,-5.055 11.256,-7.561 18.017,-7.561c6.799,0 12.615,2.443 17.444,7.336c4.806,4.869 7.229,10.962 7.229,18.297l0,49.899l1.416,0Z" style="fill:#d33c12;"/><path d="M798.514,485.783l5.582,0l0,78.498l-5.582,0l0,-15.874c-5.931,11.862 -16.049,17.793 -30.353,17.793c-9.768,0 -17.967,-3.373 -24.596,-10.118c-6.628,-6.745 -9.943,-14.943 -9.943,-24.596l0,-45.703l5.582,0l0,45.703c0,8.024 2.82,15.002 8.461,20.933c5.64,5.931 12.472,8.896 20.496,8.896c8.024,0 15.089,-2.965 21.195,-8.896c6.105,-5.931 9.158,-12.909 9.158,-20.933l0,-45.703Z" style="fill:#d33c12;fill-rule:nonzero;"/><path d="M798.514,485.783l5.582,0l0,78.498l-5.582,0l0,-15.874c-5.931,11.862 -16.049,17.793 -30.353,17.793c-9.768,0 -17.967,-3.373 -24.596,-10.118c-6.628,-6.745 -9.943,-14.943 -9.943,-24.596l0,-45.703l5.582,0l0,45.703c0,8.024 2.82,15.002 8.461,20.933c5.64,5.931 12.472,8.896 20.496,8.896c8.024,0 15.089,-2.965 21.195,-8.896c6.105,-5.931 9.158,-12.909 9.158,-20.933l0,-45.703Zm2.083,76.414l1.415,0l0,-74.33l-1.415,0l0,43.619c0,8.594 -3.251,16.075 -9.79,22.427c-6.521,6.335 -14.075,9.486 -22.646,9.486c-8.614,0 -15.951,-3.177 -22.006,-9.544c-6.026,-6.337 -9.034,-13.795 -9.034,-22.369l0,-43.619l-1.415,0l0,43.619c0,9.079 3.111,16.792 9.345,23.136c6.227,6.336 13.933,9.494 23.11,9.494c13.414,0 22.928,-5.517 28.489,-16.641c0.432,-0.864 1.402,-1.318 2.342,-1.096c0.941,0.222 1.605,1.062 1.605,2.028l0,13.79Z" style="fill:#d33c12;"/><path d="M831.134,485.958l0,78.323l-5.582,0l0,-78.323l5.582,0Zm-2.791,-19.189c-3.373,0 -5.059,-1.57 -5.059,-4.71c0,-3.139 1.686,-4.709 5.059,-4.709c3.372,0 5.058,1.57 5.058,4.709c0,3.14 -1.686,4.71 -5.058,4.71Z" style="fill:#d33c12;fill-rule:nonzero;"/><path d="M831.134,485.958l0,78.323l-5.582,0l0,-78.323l5.582,0Zm-3.499,2.083l0,74.156l1.415,0l0,-74.156l-1.415,0Zm0.708,-21.272c-3.373,0 -5.059,-1.57 -5.059,-4.71c0,-3.139 1.686,-4.709 5.059,-4.709c3.372,0 5.058,1.57 5.058,4.709c0,3.14 -1.686,4.71 -5.058,4.71Zm0,-2.083c-1.042,0 -1.854,-0.134 -2.375,-0.619c-0.471,-0.438 -0.601,-1.131 -0.601,-2.008c0,-0.876 0.13,-1.569 0.601,-2.007c0.521,-0.485 1.333,-0.619 2.375,-0.619c1.041,0 1.853,0.134 2.374,0.619c0.471,0.438 0.601,1.131 0.601,2.007c0,0.877 -0.13,1.57 -0.601,2.008c-0.521,0.485 -1.333,0.619 -2.374,0.619Z" style="fill:#d33c12;"/><path d="M855.991,554.687l6.019,10.815l-12.037,0l6.018,-10.815Z" style="fill:#d33c12;"/><path d="M855.991,554.687l6.019,10.815l-12.037,0l6.018,-10.815Zm-2.474,8.732l4.949,0l-2.475,-4.448l-2.474,4.448Z" style="fill:#d33c12;"/><path d="M886.431,485.958l0,78.323l-5.582,0l0,-78.323l5.582,0Zm-2.791,-19.189c-3.373,0 -5.059,-1.57 -5.059,-4.71c0,-3.139 1.686,-4.709 5.059,-4.709c3.372,0 5.059,1.57 5.059,4.709c0,3.14 -1.687,4.71 -5.059,4.71Z" style="fill:#d33c12;fill-rule:nonzero;"/><path d="M886.431,485.958l0,78.323l-5.582,0l0,-78.323l5.582,0Zm-3.499,2.083l0,74.156l1.416,0l0,-74.156l-1.416,0Zm0.708,-21.272c-3.373,0 -5.059,-1.57 -5.059,-4.71c0,-3.139 1.686,-4.709 5.059,-4.709c3.372,0 5.059,1.57 5.059,4.709c0,3.14 -1.687,4.71 -5.059,4.71Zm0,-2.083c-1.042,0 -1.854,-0.134 -2.374,-0.619c-0.471,-0.438 -0.601,-1.131 -0.601,-2.008c0,-0.876 0.13,-1.569 0.601,-2.007c0.52,-0.485 1.332,-0.619 2.374,-0.619c1.042,0 1.854,0.134 2.374,0.619c0.471,0.438 0.601,1.131 0.601,2.007c0,0.877 -0.13,1.57 -0.601,2.008c-0.52,0.485 -1.332,0.619 -2.374,0.619Z" style="fill:#d33c12;"/><path d="M946.089,566.2c-11.164,0 -20.758,-4.158 -28.782,-12.473c-8.024,-8.315 -12.037,-17.996 -12.037,-29.044c0,-11.048 4.071,-20.613 12.211,-28.695c8.141,-8.082 17.938,-12.124 29.393,-12.124c11.455,0 21.224,4.042 29.306,12.124c8.082,8.082 12.123,17.676 12.123,28.782c0,11.106 -3.954,20.788 -11.861,29.044c-7.908,8.257 -17.503,12.386 -28.783,12.386l-1.57,0Zm36.632,-40.994c0,-9.884 -3.517,-18.432 -10.553,-25.642c-7.036,-7.21 -15.438,-10.815 -25.207,-10.815c-9.768,0 -18.229,3.634 -25.381,10.902c-7.152,7.268 -10.728,15.787 -10.728,25.555c0,9.769 3.576,18.229 10.728,25.381c7.152,7.152 15.642,10.728 25.469,10.728c9.826,0 18.228,-3.576 25.206,-10.728c6.978,-7.152 10.466,-15.612 10.466,-25.381Z" style="fill:#d33c12;fill-rule:nonzero;"/><path d="M946.089,566.2c-11.164,0 -20.758,-4.158 -28.782,-12.473c-8.024,-8.315 -12.037,-17.996 -12.037,-29.044c0,-11.048 4.071,-20.613 12.211,-28.695c8.141,-8.082 17.938,-12.124 29.393,-12.124c11.455,0 21.224,4.042 29.306,12.124c8.082,8.082 12.123,17.676 12.123,28.782c0,11.106 -3.954,20.788 -11.861,29.044c-7.908,8.257 -17.503,12.386 -28.783,12.386l-1.57,0Zm0,-2.084c-10.584,0 -19.676,-3.952 -27.283,-11.835c-7.626,-7.903 -11.452,-17.098 -11.452,-27.598c0,-10.48 3.873,-19.549 11.595,-27.217c7.734,-7.678 17.042,-11.518 27.925,-11.518c10.879,0 20.157,3.837 27.833,11.513c7.669,7.67 11.513,16.77 11.513,27.309c0,10.557 -3.767,19.755 -11.283,27.603c-7.495,7.826 -16.586,11.743 -27.278,11.743l-1.57,0Zm38.716,-38.91c0,-10.444 -3.712,-19.478 -11.146,-27.097c-7.451,-7.636 -16.353,-11.444 -26.698,-11.444c-10.338,0 -19.297,3.833 -26.866,11.525c-7.559,7.682 -11.326,16.691 -11.326,27.016c0,10.334 3.772,19.289 11.338,26.854c7.565,7.565 16.548,11.339 26.942,11.339c10.407,0 19.307,-3.782 26.697,-11.357c7.377,-7.561 11.059,-16.508 11.059,-26.836Zm-2.084,0c0,-9.884 -3.517,-18.432 -10.553,-25.642c-7.036,-7.21 -15.438,-10.815 -25.207,-10.815c-9.768,0 -18.229,3.634 -25.381,10.902c-7.152,7.268 -10.728,15.787 -10.728,25.555c0,9.769 3.576,18.229 10.728,25.381c7.152,7.152 15.642,10.728 25.469,10.728c9.826,0 18.228,-3.576 25.206,-10.728c6.978,-7.152 10.466,-15.612 10.466,-25.381Z" style="fill:#d33c12;"/></g></g></g></g></svg>